# Blender 3.3.1
# www.blender.org
mtllib couch.mtl
o Cube.003
v 0.982661 0.136712 0.368808
v 0.982661 0.281588 0.368808
v 0.040079 0.281588 0.368808
v 0.040079 0.136712 0.368808
v 0.982661 0.286822 -0.251821
v 0.040079 0.286822 -0.251821
v 0.040079 0.286822 0.347166
v 0.982661 0.286822 0.347166
v 0.006023 0.136712 0.347166
v 0.006023 0.281588 0.347166
v 0.006023 0.281588 -0.251821
v 0.006023 0.136712 -0.251821
v 1.016717 0.281588 0.347166
v 1.016717 0.281588 -0.251821
v 1.016717 0.136712 0.347166
v 1.016717 0.776376 -0.272073
v 1.016717 0.776376 -0.190073
v 1.016717 0.302192 -0.190073
v 1.016717 0.302192 -0.272073
v 0.982661 0.776376 -0.187110
v 0.040079 0.776376 -0.187110
v 0.040079 0.302192 -0.187110
v 0.982661 0.302192 -0.187110
v 0.006023 0.302192 -0.272073
v 0.006023 0.302192 -0.190073
v 0.006023 0.776376 -0.190073
v 0.006023 0.776376 -0.272073
v 0.040079 0.793509 -0.272073
v 0.040079 0.793509 -0.190073
v 0.982661 0.793509 -0.190073
v 0.982661 0.793509 -0.272073
v 0.040079 0.285060 -0.190073
v 0.511370 0.302192 -0.275035
v 0.982661 0.285060 -0.190073
v 0.982661 0.302192 -0.275035
v 0.982661 0.285060 -0.272073
v 0.040079 0.302192 -0.272073
v -0.982661 0.136712 0.368808
v -0.040079 0.136712 0.368808
v -0.040079 0.281588 0.368808
v -0.982661 0.281588 0.368808
v -0.982661 0.286822 -0.251821
v -0.982661 0.286822 0.347166
v -0.040079 0.286822 0.347166
v -0.040079 0.286822 -0.251821
v -0.006023 0.136712 0.347166
v -0.006023 0.136712 -0.251821
v -0.006023 0.281588 -0.251821
v -0.006023 0.281588 0.347166
v -1.016717 0.281588 0.347166
v -1.016717 0.281588 -0.251821
v -1.016717 0.136712 0.347166
v -1.016717 0.776376 -0.272073
v -1.016717 0.302192 -0.272073
v -1.016717 0.302192 -0.190073
v -1.016717 0.776376 -0.190073
v -0.982661 0.776376 -0.187110
v -0.982661 0.302192 -0.187110
v -0.040079 0.302192 -0.187110
v -0.040079 0.776376 -0.187110
v -0.006023 0.302192 -0.272073
v -0.006023 0.776376 -0.272073
v -0.006023 0.776376 -0.190073
v -0.006023 0.302192 -0.190073
v -0.040079 0.793509 -0.272073
v -0.982661 0.793509 -0.272073
v -0.982661 0.793509 -0.190073
v -0.040079 0.793509 -0.190073
v -0.040079 0.285060 -0.190073
v -0.511370 0.302192 -0.275035
v -0.982661 0.285060 -0.190073
v -0.982661 0.302192 -0.275035
v -0.982661 0.285060 -0.272073
v -0.040079 0.302192 -0.272073
v 1.005224 0.447114 0.054026
v 0.907677 0.312309 0.163402
v 0.908023 0.323788 0.120726
v 0.974821 0.416102 0.045827
v 0.958203 0.449527 0.003386
v 0.942647 0.412704 0.012947
v 0.958858 0.445668 0.068024
v 0.892060 0.353355 0.142923
v 0.903792 0.319505 0.168805
v 1.001338 0.454310 0.059428
v 0.948749 0.467317 0.016960
v 0.920455 0.453809 0.043806
v 0.715598 0.365248 0.000205
v 0.685193 0.334239 -0.007992
v 0.731511 0.331833 0.041962
v 0.747777 0.368635 0.033077
v 0.875844 0.320401 0.087853
v 0.798370 0.427974 -0.096907
v 0.731561 0.335681 -0.021993
v 0.689078 0.327042 -0.013394
v 0.786640 0.461820 -0.122792
v 0.845470 0.457437 -0.087321
v 0.836773 0.419833 -0.072689
v 0.843530 0.324117 0.132397
v 0.855109 0.306080 0.120456
v 0.743068 0.313764 0.030046
v 0.853651 0.361505 0.118713
v 0.836061 0.475289 -0.073798
v 0.814581 0.460938 -0.041830
v 0.769970 0.327530 0.002217
v 0.782754 0.469016 -0.117389
v 0.782407 0.457541 -0.074710
v -1.005224 0.447114 0.054026
v -0.974821 0.416102 0.045827
v -0.908023 0.323788 0.120726
v -0.907677 0.312309 0.163402
v -0.958203 0.449527 0.003386
v -0.942647 0.412704 0.012947
v -0.958858 0.445668 0.068024
v -1.001338 0.454310 0.059428
v -0.903792 0.319505 0.168805
v -0.892060 0.353355 0.142923
v -0.948749 0.467317 0.016960
v -0.920455 0.453809 0.043806
v -0.715598 0.365248 0.000205
v -0.747777 0.368635 0.033077
v -0.731511 0.331833 0.041962
v -0.685193 0.334239 -0.007992
v -0.875844 0.320401 0.087853
v -0.798370 0.427974 -0.096907
v -0.786640 0.461820 -0.122792
v -0.689078 0.327042 -0.013394
v -0.731561 0.335681 -0.021993
v -0.845470 0.457437 -0.087321
v -0.836773 0.419833 -0.072689
v -0.855109 0.306080 0.120456
v -0.843530 0.324117 0.132397
v -0.743068 0.313764 0.030046
v -0.853651 0.361505 0.118713
v -0.836061 0.475289 -0.073798
v -0.814581 0.460938 -0.041830
v -0.769970 0.327530 0.002217
v -0.782407 0.457541 -0.074710
v -0.782754 0.469016 -0.117389
v 1.146088 -0.001676 -0.274516
v 1.146088 0.766855 -0.274516
v -1.146088 0.766855 -0.274516
v -1.146088 -0.001676 -0.274516
v 1.146088 -0.001676 0.397724
v 1.146088 -0.001676 -0.274516
v 1.146088 0.431529 -0.274516
v 1.146088 0.431529 0.397724
v 1.146088 0.767160 -0.392639
v 1.146088 0.779983 -0.334032
v 1.146088 -0.001676 -0.334032
v 1.146088 -0.001676 -0.392639
v 1.014240 -0.001676 0.397724
v 1.014240 0.431795 0.397724
v 1.121259 0.439637 0.397724
v 1.038406 0.439637 0.397724
v 1.079832 0.444977 0.397724
v -1.146088 0.767160 -0.392639
v -1.146088 0.779983 -0.334032
v 1.014240 -0.001676 -0.274516
v 1.014240 0.431795 -0.274516
v 1.121259 0.439637 -0.274516
v 1.079832 0.444977 -0.274516
v 1.038406 0.439637 -0.274516
v -1.146088 -0.001676 -0.392639
v 1.014240 0.137456 0.397724
v 1.014240 0.137456 -0.274516
v -1.014240 0.137456 -0.274516
v -1.014240 0.137456 0.397724
v -1.014240 -0.001676 0.397724
v 1.014240 -0.001676 0.397724
v -1.146088 -0.001676 -0.274516
v -1.146088 -0.001676 0.397724
v -1.146088 0.431795 0.397724
v -1.146088 -0.001676 -0.334032
v -1.121922 0.439637 0.397724
v -1.121922 0.439637 -0.274516
v -1.146088 0.431795 -0.274516
v -1.039069 0.439637 0.397724
v -1.014240 0.431529 0.397724
v -1.014240 0.431529 -0.274516
v -1.039069 0.439637 -0.274516
v -1.080496 0.444977 0.397724
v -1.080496 0.444977 -0.274516
v -1.014240 -0.001676 0.397724
v -1.014240 -0.001676 -0.274516
vn 0.2793 -0.0000 0.9602
vn -0.2793 -0.0000 0.9602
vn 0.0762 0.9971 -0.0000
vn -0.0762 0.9971 -0.0000
vn -0.0752 0.9902 0.1174
vn 0.0752 0.9902 0.1174
vn -0.8765 -0.0000 0.4815
vn -1.0000 -0.0000 -0.0000
vn -0.0584 0.9703 0.2347
vn -0.1516 0.9864 0.0634
vn 0.0584 0.9703 0.2347
vn 0.1516 0.9864 0.0634
vn -0.1519 0.9884 -0.0000
vn 0.1519 0.9884 -0.0000
vn 0.5363 -0.0000 0.8440
vn 0.8513 0.5247 -0.0000
vn 0.8513 -0.5247 -0.0000
vn 0.0431 0.0852 0.9954
vn -0.0431 0.0852 0.9954
vn -0.0431 -0.0852 0.9954
vn 0.0431 -0.0852 0.9954
vn -0.8513 0.5247 -0.0000
vn -0.2310 0.9730 -0.0000
vn 0.2310 0.9730 -0.0000
vn -0.0354 -0.1703 0.9848
vn -0.0866 -0.0394 0.9955
vn -0.0000 0.0044 -1.0000
vn -0.0036 0.0023 -1.0000
vn -0.0014 0.0047 -1.0000
vn -0.0354 0.1703 0.9848
vn -0.0866 0.0394 0.9955
vn 0.0354 -0.1703 0.9848
vn 0.0866 -0.0394 0.9955
vn 0.0014 0.0047 -1.0000
vn 0.0036 0.0048 -1.0000
vn 0.0866 0.0394 0.9955
vn 0.0354 0.1703 0.9848
vn 0.0059 0.0058 -1.0000
vn 0.4494 -0.8933 -0.0000
vn 0.8513 -0.5247 -0.0002
vn -0.0059 -0.0004 -1.0000
vn 0.8765 -0.0000 0.4815
vn 1.0000 -0.0000 -0.0000
vn -0.5363 -0.0000 0.8440
vn -0.8513 -0.5247 -0.0000
vn 0.0036 0.0023 -1.0000
vn -0.0036 0.0048 -1.0000
vn -0.0059 0.0058 -1.0000
vn -0.4494 -0.8933 -0.0000
vn 0.0059 -0.0004 -1.0000
vn 0.9865 0.0262 -0.1618
vn 0.4073 -0.7721 0.4879
vn 0.5371 -0.7997 -0.2684
vn 0.6657 -0.6217 -0.4127
vn 0.6838 0.1370 -0.7167
vn 0.5397 -0.5963 -0.5943
vn -0.0854 0.7720 0.6299
vn -0.2176 0.5893 0.7780
vn 0.0402 -0.0941 0.9948
vn 0.6202 0.7044 0.3452
vn 0.2364 0.9669 -0.0960
vn -0.2364 0.8422 0.4845
vn -0.6662 0.6215 0.4123
vn -0.9864 -0.0285 0.1616
vn -0.6852 -0.1372 0.7154
vn -0.5389 0.5972 0.5940
vn 0.3566 -0.8491 -0.3896
vn 0.2174 -0.5896 -0.7779
vn 0.0852 -0.7722 -0.6296
vn -0.6186 -0.7052 -0.3463
vn -0.0411 0.0957 -0.9946
vn 0.5700 0.1480 -0.8082
vn 0.4207 -0.5875 -0.6913
vn -0.5730 -0.1463 0.8064
vn -0.1200 -0.9749 0.1877
vn -0.2329 -0.9676 0.0978
vn -0.4200 0.5877 0.6915
vn 0.1225 0.9751 -0.1847
vn -0.3571 0.8489 0.3897
vn 0.2361 -0.8420 -0.4852
vn -0.4080 0.7729 -0.4860
vn -0.5363 0.8004 0.2677
vn -0.9864 0.0263 -0.1625
vn -0.6657 -0.6217 -0.4127
vn -0.5366 -0.8004 -0.2671
vn -0.4075 -0.7718 0.4882
vn -0.6831 0.1363 -0.7175
vn -0.5396 -0.5969 -0.5937
vn 0.0854 0.7720 0.6299
vn -0.6202 0.7044 0.3452
vn -0.0398 -0.0937 0.9948
vn 0.2176 0.5893 0.7780
vn -0.2372 0.9667 -0.0961
vn 0.2364 0.8422 0.4845
vn 0.6650 0.6222 0.4131
vn 0.5389 0.5972 0.5940
vn 0.6856 -0.1377 0.7149
vn 0.9865 -0.0285 0.1613
vn -0.3566 -0.8491 -0.3896
vn -0.2174 -0.5896 -0.7779
vn 0.0411 0.0957 -0.9946
vn 0.6185 -0.7056 -0.3459
vn -0.0852 -0.7722 -0.6296
vn -0.5697 0.1480 -0.8084
vn -0.4207 -0.5875 -0.6913
vn 0.1200 -0.9749 0.1877
vn 0.5730 -0.1463 0.8064
vn 0.2331 -0.9675 0.0975
vn 0.4200 0.5877 0.6915
vn -0.1223 0.9750 -0.1858
vn 0.3558 0.8494 0.3898
vn -0.2361 -0.8420 -0.4852
vn 0.5363 0.8004 0.2677
vn 0.4071 0.7733 -0.4861
vn -0.0000 -0.0000 1.0000
vn -0.0000 0.6263 0.7796
vn 0.8095 0.5872 -0.0000
vn -0.0000 1.0000 0.0009
vn -0.0000 0.6270 -0.7790
vn -0.8089 0.5879 -0.0000
vn -0.0000 1.0000 -0.0000
vn 0.2201 0.9755 -0.0000
vn -0.2192 0.9757 -0.0000
vn -0.0000 -0.0000 -1.0000
vt 0.723793 0.648470
vt 0.716594 0.679289
vt 0.510330 0.674031
vt 0.511608 0.638835
vt 0.725849 0.819806
vt 0.506447 0.819730
vt 0.510262 0.679346
vt 0.716956 0.684081
vt 0.468145 0.678118
vt 0.501806 0.638479
vt 0.500528 0.673675
vt 0.502124 0.679027
vt 0.498366 0.819514
vt 0.464386 0.818605
vt 0.724919 0.682752
vt 0.733738 0.819303
vt 0.732735 0.650646
vt 0.111321 0.565205
vt 0.137521 0.584168
vt 0.117835 0.580910
vt 0.112311 0.582821
vt 0.015998 0.587240
vt 0.249977 0.575697
vt 0.009452 0.570931
vt 0.112478 0.590129
vt 0.111649 0.804419
vt 0.004147 0.803243
vt 0.014730 0.593865
vt 0.003706 0.829591
vt 0.252303 0.816929
vt 0.003918 0.810965
vt 0.111625 0.812187
vt 0.117321 0.814719
vt 0.111413 0.830813
vt 0.138436 0.810666
vt 0.135629 0.801661
vt 0.115608 0.804465
vt 0.116321 0.590062
vt 0.134981 0.593031
vt 0.000244 0.803130
vt 0.258976 0.695577
vt 0.010592 0.593029
vt 0.250588 0.583804
vt 0.000244 0.575659
vt 0.252752 0.808751
vt 0.744992 0.383314
vt 0.957356 0.379353
vt 0.957693 0.414570
vt 0.751364 0.414314
vt 0.738354 0.554529
vt 0.750874 0.419094
vt 0.957619 0.419886
vt 0.957679 0.560327
vt 0.999756 0.419784
vt 0.967164 0.379260
vt 0.999756 0.560327
vt 0.965764 0.560327
vt 0.967501 0.414476
vt 0.965763 0.419784
vt 0.742950 0.417553
vt 0.730482 0.553814
vt 0.735996 0.385251
vt 0.464386 0.490335
vt 0.483349 0.516535
vt 0.474877 0.628991
vt 0.470114 0.388467
vt 0.486422 0.395013
vt 0.480091 0.496850
vt 0.482002 0.491325
vt 0.489310 0.491492
vt 0.493047 0.393745
vt 0.702425 0.383164
vt 0.703601 0.490667
vt 0.728774 0.382723
vt 0.716108 0.631320
vt 0.729994 0.490431
vt 0.709848 0.517454
vt 0.711369 0.490642
vt 0.713901 0.496338
vt 0.710148 0.382934
vt 0.700842 0.514646
vt 0.492212 0.513995
vt 0.489243 0.495335
vt 0.703646 0.494626
vt 0.702312 0.379260
vt 0.594756 0.637992
vt 0.492211 0.389608
vt 0.482984 0.629602
vt 0.474842 0.379260
vt 0.707930 0.631770
vt 0.448804 0.800743
vt 0.444654 0.892853
vt 0.439452 0.850658
vt 0.433681 0.840244
vt 0.439452 0.807926
vt 0.429611 0.904982
vt 0.430206 0.795550
vt 0.427760 0.806567
vt 0.434799 0.886788
vt 0.431477 0.859479
vt 0.437642 0.852423
vt 0.441915 0.891437
vt 0.427836 0.898520
vt 0.424911 0.888502
vt 0.386515 0.859602
vt 0.380714 0.853315
vt 0.394605 0.851507
vt 0.395776 0.859943
vt 0.423752 0.837944
vt 0.379673 0.806823
vt 0.384273 0.840534
vt 0.378394 0.851181
vt 0.370263 0.799269
vt 0.374307 0.893186
vt 0.388467 0.904982
vt 0.389329 0.794663
vt 0.391594 0.805759
vt 0.423062 0.851629
vt 0.424094 0.846158
vt 0.394680 0.846540
vt 0.422374 0.859940
vt 0.390975 0.898098
vt 0.393806 0.888210
vt 0.394400 0.838288
vt 0.376493 0.892050
vt 0.384176 0.886728
vt 0.264252 0.873218
vt 0.356430 0.871068
vt 0.271636 0.864024
vt 0.304072 0.858955
vt 0.314358 0.864952
vt 0.368882 0.856292
vt 0.259464 0.854511
vt 0.270531 0.852306
vt 0.350580 0.861084
vt 0.355074 0.868299
vt 0.316161 0.863180
vt 0.323350 0.857170
vt 0.362461 0.854377
vt 0.352509 0.851235
vt 0.324449 0.812221
vt 0.324588 0.821487
vt 0.316180 0.820133
vt 0.318288 0.806285
vt 0.301987 0.848979
vt 0.271830 0.804235
vt 0.264483 0.794663
vt 0.358289 0.800744
vt 0.316205 0.803919
vt 0.305434 0.809565
vt 0.369775 0.815157
vt 0.259464 0.813625
vt 0.270508 0.816130
vt 0.310192 0.849500
vt 0.315684 0.848586
vt 0.311212 0.820100
vt 0.324008 0.848079
vt 0.362839 0.817515
vt 0.352892 0.820131
vt 0.302969 0.819641
vt 0.351618 0.810471
vt 0.357106 0.802906
vt 0.708043 0.000249
vt 0.893848 0.175535
vt 0.708041 0.175254
vt 0.186080 0.175249
vt 0.186082 0.000244
vt 0.000346 0.174544
vt 0.734235 0.792135
vt 0.734288 0.638479
vt 0.833307 0.638513
vt 0.833254 0.792169
vt 0.707992 0.203713
vt 0.706474 0.189327
vt 0.893827 0.189924
vt 0.893798 0.204088
vt 0.707992 0.378772
vt 0.734225 0.822272
vt 0.963206 0.792214
vt 0.833305 0.822306
vt 0.864126 0.792180
vt 0.835105 0.797845
vt 0.839224 0.792171
vt 0.835099 0.816783
vt 0.858319 0.792177
vt 0.836323 0.807314
vt 0.848772 0.792174
vt 0.186079 0.203713
vt 0.187622 0.189861
vt 0.963259 0.638558
vt 0.864179 0.638524
vt 0.839277 0.638515
vt 0.848825 0.638519
vt 0.858372 0.638522
vt 0.186079 0.378772
vt 0.000244 0.203094
vt 0.463899 0.411062
vt 0.463899 0.564717
vt 0.000244 0.564717
vt 0.000244 0.411062
vt 0.000244 0.379260
vt 0.463899 0.379260
vt 0.259464 0.565205
vt 0.413119 0.565205
vt 0.413119 0.664284
vt 0.000291 0.188928
vt 0.413119 0.670092
vt 0.418643 0.666077
vt 0.259464 0.670091
vt 0.259464 0.664284
vt 0.413119 0.689186
vt 0.437581 0.666077
vt 0.443256 0.664223
vt 0.413119 0.695156
vt 0.259464 0.695157
vt 0.259464 0.689186
vt 0.413119 0.679639
vt 0.428112 0.667297
vt 0.259464 0.679639
vt 0.443256 0.565205
vt 0.413119 0.794175
vt 0.259464 0.794175
s 1
f 1/1/1 2/2/1 3/3/2 4/4/2
f 5/5/3 6/6/4 7/7/5 8/8/6
f 9/9/7 10/12/7 11/13/8 12/14/8
f 3/3/9 7/7/5 10/12/10
f 8/8/6 2/2/11 13/15/12
f 4/4/2 3/3/2 10/11/7 9/10/7
f 7/7/5 6/6/4 11/13/13 10/12/10
f 5/5/3 8/8/6 13/15/12 14/16/14
f 2/2/1 1/1/1 15/17/15 13/15/15
f 8/8/6 7/7/5 3/3/9 2/2/11
f 16/18/16 17/21/16 18/22/17 19/24/17
f 20/25/18 21/26/19 22/27/20 23/28/21
f 24/29/8 25/31/8 26/32/22 27/34/22
f 28/36/23 29/37/23 30/38/24 31/39/24
f 32/40/25 22/27/20 25/31/26
f 33/41/27 27/35/28 28/36/29
f 21/26/19 29/37/30 26/32/31
f 23/28/21 34/42/32 18/22/33
f 33/41/27 31/39/34 16/19/35
f 20/25/18 17/21/36 30/38/37
f 22/27/20 21/26/19 26/32/31 25/31/26
f 29/37/23 28/36/23 27/35/22 26/33/22
f 33/41/27 28/36/29 31/39/34
f 21/26/19 20/25/18 30/38/37 29/37/30
f 17/20/16 16/19/16 31/39/24 30/38/24
f 35/43/38 33/41/27 16/19/35 19/23/38
f 20/25/18 23/28/21 18/22/33 17/21/36
f 34/42/39 36/44/39 19/24/17 18/22/40
f 23/28/21 22/27/20 32/40/25 34/42/32
f 33/41/27 37/45/41 24/30/41 27/35/28
f 38/46/2 39/47/1 40/48/1 41/49/2
f 42/50/4 43/51/5 44/52/6 45/53/3
f 46/54/42 47/56/43 48/57/43 49/59/42
f 40/48/11 49/59/12 44/52/6
f 43/51/5 50/60/10 41/49/9
f 39/47/1 46/55/42 49/58/42 40/48/1
f 44/52/6 49/59/12 48/57/14 45/53/3
f 42/50/4 51/61/13 50/60/10 43/51/5
f 41/49/2 50/60/44 52/62/44 38/46/2
f 43/51/5 41/49/9 40/48/11 44/52/6
f 53/63/22 54/66/45 55/67/45 56/69/22
f 57/70/19 58/71/20 59/72/21 60/73/18
f 61/74/43 62/76/16 63/78/16 64/80/43
f 65/81/24 66/82/23 67/83/23 68/84/24
f 69/85/32 64/80/33 59/72/21
f 70/86/27 65/81/34 62/77/46
f 60/73/18 63/78/36 68/84/37
f 58/71/20 55/67/26 71/87/25
f 70/86/27 53/64/47 66/82/29
f 57/70/19 67/83/30 56/69/31
f 59/72/21 64/80/33 63/78/36 60/73/18
f 68/84/24 63/79/16 62/77/16 65/81/24
f 70/86/27 66/82/29 65/81/34
f 60/73/18 68/84/37 67/83/30 57/70/19
f 56/68/22 67/83/23 66/82/23 53/64/22
f 72/88/48 54/65/48 53/64/47 70/86/27
f 57/70/19 56/69/31 55/67/26 58/71/20
f 71/87/49 55/67/45 54/66/45 73/89/49
f 58/71/20 71/87/25 69/85/32 59/72/21
f 70/86/27 62/77/46 61/75/50 74/90/50
f 75/91/51 76/93/52 77/94/53 78/95/54
f 79/97/55 75/91/51 78/95/54 80/98/56
f 81/99/57 82/100/58 83/101/59 84/102/60
f 85/103/61 86/104/62 81/99/57 84/102/60
f 87/105/63 88/106/64 89/107/65 90/108/66
f 77/94/53 91/109/67 80/98/56 78/95/54
f 92/110/68 93/111/69 94/112/70 95/113/71
f 96/116/72 97/117/73 92/110/68 95/113/71
f 83/101/59 98/118/74 99/119/75 76/93/52
f 100/120/76 99/119/75 98/118/74 89/107/65
f 90/108/66 89/107/65 98/118/74 101/121/77
f 83/101/59 76/93/52 75/92/51 84/102/60
f 85/103/61 84/102/60 75/92/51 79/96/55
f 82/100/58 101/121/77 98/118/74 83/101/59
f 81/99/57 86/104/62 101/121/77 82/100/58
f 79/96/55 96/115/72 102/122/78 85/103/61
f 103/123/79 90/108/66 101/121/77 86/104/62
f 77/94/53 76/93/52 99/119/75 91/109/67
f 91/109/67 99/119/75 100/120/76 104/124/80
f 93/111/69 104/124/80 100/120/76 94/112/70
f 92/110/68 97/117/73 104/124/80 93/111/69
f 89/107/65 88/106/64 94/112/70 100/120/76
f 102/122/78 105/125/81 106/126/82 103/123/79
f 105/125/81 102/122/78 96/115/72 95/114/71
f 86/104/62 85/103/61 102/122/78 103/123/79
f 105/125/81 88/106/64 87/105/63 106/126/82
f 87/105/63 90/108/66 103/123/79 106/126/82
f 97/117/73 80/98/56 91/109/67 104/124/80
f 79/97/55 80/98/56 97/117/73 96/116/72
f 105/125/81 95/114/71 94/112/70 88/106/64
f 107/127/83 108/129/84 109/130/85 110/131/86
f 111/133/87 112/134/88 108/129/84 107/127/83
f 113/135/89 114/136/90 115/137/91 116/138/92
f 117/139/93 114/136/90 113/135/89 118/140/94
f 119/141/95 120/142/96 121/143/97 122/144/98
f 109/130/85 108/129/84 112/134/88 123/145/99
f 124/146/100 125/147/101 126/149/102 127/150/103
f 128/152/104 125/147/101 124/146/100 129/153/105
f 115/137/91 110/131/86 130/154/106 131/155/107
f 132/156/108 121/143/97 131/155/107 130/154/106
f 120/142/96 133/157/109 131/155/107 121/143/97
f 115/137/91 114/136/90 107/128/83 110/131/86
f 117/139/93 111/132/87 107/128/83 114/136/90
f 116/138/92 115/137/91 131/155/107 133/157/109
f 113/135/89 116/138/92 133/157/109 118/140/94
f 111/132/87 117/139/93 134/158/110 128/151/104
f 135/159/111 118/140/94 133/157/109 120/142/96
f 109/130/85 123/145/99 130/154/106 110/131/86
f 123/145/99 136/160/112 132/156/108 130/154/106
f 127/150/103 126/149/102 132/156/108 136/160/112
f 124/146/100 127/150/103 136/160/112 129/153/105
f 121/143/97 132/156/108 126/149/102 122/144/98
f 134/158/110 135/159/111 137/161/113 138/162/114
f 138/162/114 125/148/101 128/151/104 134/158/110
f 118/140/94 135/159/111 134/158/110 117/139/93
f 138/162/114 137/161/113 119/141/95 122/144/98
f 119/141/95 137/161/113 135/159/111 120/142/96
f 129/153/105 136/160/112 123/145/99 112/134/88
f 111/133/87 128/152/104 129/153/105 112/134/88
f 138/162/114 122/144/98 126/149/102 125/148/101
f 139/163/115 140/165/116 141/166/116 142/167/115
f 143/169/43 144/170/43 145/171/117 146/172/117
f 147/173/43 148/174/43 149/175/43 150/176/43
f 146/172/115 151/178/115 143/169/115
f 139/164/43 149/175/43 148/174/43 140/165/43
f 152/180/115 151/178/115 146/172/115
f 153/182/115 154/184/115 152/180/115 146/172/115
f 154/184/115 153/182/115 155/186/115
f 148/174/118 147/173/119 156/188/119 157/189/118
f 158/190/8 152/181/120 159/191/120
f 155/187/121 153/183/122 160/192/122 161/193/121
f 154/185/123 155/187/121 161/193/121 162/194/123
f 153/183/122 146/172/117 145/171/117 160/192/122
f 152/181/120 154/185/123 162/194/123 159/191/120
f 158/190/8 151/179/8 152/181/120
f 140/165/116 148/174/118 157/189/118 141/166/116
f 147/173/119 150/177/124 163/195/124 156/188/119
f 164/197/121 165/198/121 166/199/121 167/200/121
f 168/201/115 169/202/115 164/197/115 167/200/115
f 170/203/8 171/204/8 172/205/120
f 156/188/8 163/196/8 173/206/8 157/189/8
f 172/205/120 174/207/123 175/209/123 176/210/120
f 142/168/8 141/166/8 157/189/8 173/206/8
f 177/211/122 178/214/117 179/215/117 180/216/122
f 174/207/123 181/217/121 182/219/121 175/209/123
f 181/217/121 177/211/122 180/216/122 182/219/121
f 170/203/8 172/205/120 176/210/120
f 174/208/115 177/212/115 181/218/115
f 177/212/115 174/208/115 172/205/115 178/213/115
f 172/205/115 171/204/115 178/213/115
f 178/213/115 171/204/115 183/220/115
f 183/221/43 184/222/43 179/215/117 178/214/117
